<?xml version="1.0" encoding="iso-8859-1"?>
<!-- Generator: Adobe Illustrator 19.0.0, SVG Export Plug-In . SVG Version: 6.00 Build 0)  -->
<svg version="1.1" id="Layer_1" xmlns="http://www.w3.org/2000/svg" xmlns:xlink="http://www.w3.org/1999/xlink" x="0px" y="0px"
	 viewBox="0 0 295.238 295.238" style="enable-background:new 0 0 295.238 295.238;" xml:space="preserve">
<g>
	<g>
		<path style="fill:#F9BA48;" d="M295.238,295.238H0v-75.51h80.952v-53.062h133.333v53.062h80.952v75.51H295.238z"/>
		<polygon style="fill:#333333;" points="152.381,185.714 133.333,185.714 133.333,195.238 142.857,195.238 142.857,214.286 
			133.333,214.286 133.333,223.81 161.905,223.81 161.905,214.286 152.381,214.286 		"/>
		<polygon style="fill:#333333;" points="23.81,247.619 42.857,247.619 42.857,253.424 23.81,258.186 23.81,276.19 52.381,276.19 
			52.381,266.667 33.333,266.667 33.333,265.624 52.381,260.862 52.381,238.095 23.81,238.095 		"/>
		<polygon style="fill:#333333;" points="242.857,238.095 242.857,247.619 261.905,247.619 261.905,252.381 242.857,252.381 
			242.857,261.905 261.905,261.905 261.905,266.667 242.857,266.667 242.857,276.19 271.429,276.19 271.429,238.095 		"/>
		<path style="fill:#333333;" d="M192.871,4.952c-6.795,1.105-11.919,7.39-11.919,14.605v11.076l-16.348,9.81
			c4.21-4.295,6.824-10.157,6.824-16.633c0-13.129-10.681-23.81-23.81-23.81s-23.81,10.681-23.81,23.81
			c0,7.814,3.838,14.705,9.671,19.048h-19.195v-9.014c0-7.219-5.124-13.5-11.919-14.605c-4.181-0.676-8.419,0.49-11.614,3.21
			c-3.205,2.719-5.038,6.686-5.038,10.886v23.962c0,7.795,6.338,14.133,14.129,14.133h23.967v76.19
			c0,7.876,6.41,14.286,14.286,14.286c3.657,0,6.995-1.381,9.524-3.648c2.529,2.267,5.867,3.648,9.524,3.648
			c7.876,0,14.286-6.41,14.286-14.286V66.824l31.905-17.729c3.819-2.119,6.19-6.148,6.19-10.514V19.048
			c0-4.2-1.833-8.167-5.038-10.886C201.29,5.443,197.057,4.281,192.871,4.952z M147.619,9.524c7.876,0,14.286,6.41,14.286,14.286
			s-6.41,14.286-14.286,14.286s-14.286-6.41-14.286-14.286S139.743,9.524,147.619,9.524z M200,38.586
			c0,0.905-0.495,1.743-1.29,2.186l-36.805,20.443v86.405c0,2.629-2.138,4.762-4.762,4.762s-4.762-2.133-4.762-4.762V100h-9.524
			v47.619c0,2.629-2.138,4.762-4.762,4.762s-4.762-2.133-4.762-4.762V61.905h-33.49c-2.538,0-4.605-2.071-4.605-4.61V33.333
			c0-1.4,0.61-2.724,1.681-3.633c1.081-0.919,2.457-1.31,3.914-1.062c2.205,0.362,3.929,2.643,3.929,5.205v18.538h58.462
			l27.252-16.352V19.557c0-2.562,1.724-4.848,3.929-5.205c1.448-0.238,2.833,0.143,3.914,1.062c1.071,0.91,1.681,2.233,1.681,3.633
			L200,38.586L200,38.586z"/>
	</g>
</g>
<g>
</g>
<g>
</g>
<g>
</g>
<g>
</g>
<g>
</g>
<g>
</g>
<g>
</g>
<g>
</g>
<g>
</g>
<g>
</g>
<g>
</g>
<g>
</g>
<g>
</g>
<g>
</g>
<g>
</g>
</svg>
