<?xml version="1.0" encoding="iso-8859-1"?>
<!-- Generator: Adobe Illustrator 19.0.0, SVG Export Plug-In . SVG Version: 6.00 Build 0)  -->
<svg version="1.1" id="Layer_1" xmlns="http://www.w3.org/2000/svg" xmlns:xlink="http://www.w3.org/1999/xlink" x="0px" y="0px"
	 viewBox="0 0 295.238 295.238" style="enable-background:new 0 0 295.238 295.238;" xml:space="preserve">
<g>
	<g>
		<path style="fill:#333333;" d="M278.571,9.525c-3.619,0-6.948,1.19-9.686,3.157c-2.943-4.733-8.152-7.919-14.124-7.919
			c-3.619,0-6.948,1.19-9.686,3.157c-2.942-4.733-8.151-7.919-14.123-7.919c-9.19,0-16.667,7.476-16.667,16.667v54.623
			c-11.481-6.233-23.752-9.386-36.595-9.386c-26.471,0-45.695,11.895-57.157,21.876c-4.238,3.686-6.505,9.029-6.224,14.657
			c0.286,5.667,3.105,10.81,7.743,14.09c6.914,4.89,16.257,4.386,22.714-1.219c6.662-5.781,17.776-12.667,32.924-12.667
			c19.157,0,32,13.976,36.595,19.924v48.586c-4.595,5.948-17.438,19.919-36.595,19.919c-15.152,0-26.267-6.886-32.924-12.657
			c-6.462-5.619-15.81-6.105-22.714-1.224c-4.638,3.281-7.462,8.424-7.743,14.09c-0.281,5.629,1.986,10.971,6.224,14.657
			c11.467,9.976,30.686,21.871,57.157,21.871c7.581,0,15.057-1.133,22.31-3.371v74.8h80.952V203.47
			c8.876-6.219,14.286-16.433,14.286-27.281v-150C295.238,17.001,287.762,9.525,278.571,9.525z M285.714,176.191
			c0,8.41-4.567,16.29-11.919,20.567l-2.367,1.376v87.581h-61.905v-79.143l-6.567,2.695c-8.119,3.333-16.619,5.019-25.267,5.019
			c-23.524,0-40.671-10.619-50.905-19.533c-2.019-1.762-3.1-4.31-2.967-7c0.138-2.733,1.495-5.214,3.733-6.795
			c3.314-2.352,7.829-2.09,10.971,0.643c7.881,6.838,21.076,14.986,39.167,14.986c25.129,0,40.962-19.186,45.214-25.071l0.905-1.238
			V115.44l-0.905-1.248c-4.252-5.881-20.086-25.076-45.214-25.076c-18.081,0-31.281,8.152-39.167,14.995
			c-3.138,2.724-7.648,2.986-10.971,0.638c-2.238-1.581-3.595-4.062-3.733-6.795c-0.133-2.686,0.948-5.238,2.967-7
			c10.238-8.905,27.381-19.524,50.905-19.524c13.71,0,26.719,4.129,38.676,12.276l7.443,5.076V16.668
			c0-3.938,3.205-7.143,7.143-7.143s7.143,3.205,7.143,7.143v4.762v92.857h9.524V21.43c0-3.938,3.205-7.143,7.143-7.143
			s7.143,3.205,7.143,7.143v4.762v88.095h9.524V26.191c0-3.938,3.205-7.143,7.143-7.143c3.938,0,7.143,3.205,7.143,7.143V176.191z"
			/>
		<path style="fill:#F9BA48;" d="M100,200.001H71.662l2.919-6.671c1.071-2.438,1.61-5,1.61-7.614
			c0-10.505-8.543-19.048-19.048-19.048s-19.048,8.543-19.048,19.048c0,2.614,0.538,5.176,1.61,7.614l2.919,6.671H14.286
			C6.41,200.001,0,193.591,0,185.715v-28.338l6.671,2.919c2.438,1.071,5,1.61,7.614,1.61c10.505,0,19.048-8.543,19.048-19.048
			S24.79,123.81,14.285,123.81c-2.614,0-5.176,0.538-7.614,1.61L0,128.339v-28.338c0-7.876,6.41-14.286,14.286-14.286h14.69
			c-0.271-1.567-0.405-3.157-0.405-4.762c0-15.757,12.814-28.571,28.571-28.571s28.571,12.814,28.571,28.571
			c0,1.605-0.133,3.195-0.405,4.762H100c7.876,0,14.286,6.41,14.286,14.286v14.69c1.567-0.271,3.157-0.405,4.762-0.405
			c15.757,0,28.571,12.814,28.571,28.571s-12.814,28.571-28.571,28.571c-1.605,0-3.195-0.133-4.762-0.405v14.69
			C114.286,193.591,107.876,200.001,100,200.001z"/>
	</g>
</g>
<g>
</g>
<g>
</g>
<g>
</g>
<g>
</g>
<g>
</g>
<g>
</g>
<g>
</g>
<g>
</g>
<g>
</g>
<g>
</g>
<g>
</g>
<g>
</g>
<g>
</g>
<g>
</g>
<g>
</g>
</svg>
