<?xml version="1.0" encoding="iso-8859-1"?>
<!-- Generator: Adobe Illustrator 19.0.0, SVG Export Plug-In . SVG Version: 6.00 Build 0)  -->
<svg version="1.1" id="Layer_1" xmlns="http://www.w3.org/2000/svg" xmlns:xlink="http://www.w3.org/1999/xlink" x="0px" y="0px"
	 viewBox="0 0 295.239 295.239" style="enable-background:new 0 0 295.239 295.239;" xml:space="preserve">
<g>
	<g>
		<path style="fill:rgba(255, 176, 58, 0.4);" d="M171.43,95.238h-47.619V67.81c-8.99-7.219-14.286-18.143-14.286-29.714
			C109.525,17.09,126.615,0,147.62,0s38.095,17.09,38.095,38.095c0,11.576-5.295,22.5-14.286,29.714L171.43,95.238L171.43,95.238z"
			/>
		<path style="fill:#333333;" d="M176.191,71.429h-23.81V51.505c5.529-1.971,9.524-7.21,9.524-13.41
			c0-7.876-6.41-14.286-14.286-14.286s-14.286,6.41-14.286,14.286c0,6.2,3.995,11.438,9.524,13.41v19.924h-23.81v9.524h57.143
			L176.191,71.429L176.191,71.429z M147.62,33.333c2.629,0,4.762,2.138,4.762,4.762s-2.133,4.762-4.762,4.762
			s-4.762-2.138-4.762-4.762C142.857,35.471,144.991,33.333,147.62,33.333z"/>
		<path style="fill:#333333;" d="M189.491,205.519l-5.162,8.01c15.776,10.171,25.195,27.405,25.195,46.095v26.09h-59.171
			l34.714-59.505l-8.233-4.8l-29.214,50.095l-29.219-50.094l-8.233,4.8l34.719,59.505H85.715v-26.09
			c0-18.695,9.419-35.929,25.195-46.1l-5.162-8.01c-18.51,11.943-29.557,32.167-29.557,54.11v35.614h142.857v-35.614
			C219.049,237.681,208.001,217.457,189.491,205.519z"/>
		<path style="fill:#333333;" d="M94.796,162.095c0,28.99,23.581,52.571,52.571,52.571s52.571-23.581,52.571-52.571
			c0-28.986-23.581-52.571-52.571-52.571S94.796,133.11,94.796,162.095z M190.415,162.095c0,23.733-19.314,43.048-43.048,43.048
			s-43.048-19.314-43.048-43.048c0-23.738,19.314-43.048,43.048-43.048S190.415,138.357,190.415,162.095z"/>
		<path style="fill:#333333;" d="M83.039,179.638c-3.938,1.124-7.929,1.695-11.857,1.695c-23.733,0-43.048-19.314-43.048-43.048
			c0-23.738,19.314-43.048,43.048-43.048c12.957,0,25.1,5.762,33.324,15.814l7.376-6.033
			c-10.043-12.267-24.876-19.305-40.705-19.305c-28.99,0-52.571,23.586-52.571,52.571c0,28.99,23.581,52.571,52.571,52.571
			c4.814,0,9.681-0.695,14.471-2.062L83.039,179.638z"/>
		<path style="fill:#333333;" d="M9.525,235.814c0-18.695,9.419-35.929,25.195-46.1l-5.162-8.01
			c-18.509,11.944-29.557,32.167-29.557,54.11v35.614h61.905v-9.524H9.525V235.814z"/>
		<path style="fill:#333333;" d="M276.13,138.286c0-28.986-23.581-52.571-52.571-52.571c-15.824,0-30.657,7.038-40.7,19.305
			l7.376,6.033c8.224-10.052,20.371-15.814,33.324-15.814c23.733,0,43.048,19.31,43.048,43.048
			c0,23.733-19.314,43.048-43.048,43.048c-3.929,0-7.919-0.571-11.857-1.695l-2.624,9.152c4.79,1.371,9.662,2.071,14.481,2.071
			C252.549,190.857,276.13,167.276,276.13,138.286z"/>
		<path style="fill:#333333;" d="M265.682,181.71l-5.162,8.01c15.776,10.171,25.195,27.405,25.195,46.095v26.09h-47.619l0,0h-9.524
			v9.524h66.667v-35.614C295.239,213.871,284.19,193.648,265.682,181.71z"/>
	</g>
</g>
<g>
</g>
<g>
</g>
<g>
</g>
<g>
</g>
<g>
</g>
<g>
</g>
<g>
</g>
<g>
</g>
<g>
</g>
<g>
</g>
<g>
</g>
<g>
</g>
<g>
</g>
<g>
</g>
<g>
</g>
</svg>
