<?xml version="1.0" standalone="no"?>
<svg
  width="600"
  height="600"
  viewBox="0 0 600 600"
  xmlns="http://www.w3.org/2000/svg"
>
  <g transform="translate(300,300)">
    <path d="M94.3,-111.3C133.4,-79.7,183.9,-60.5,199.7,-26.9C215.4,6.6,196.5,54.6,173.4,105.5C150.4,156.4,123.3,210.2,84.5,218.3C45.7,226.5,-4.7,188.9,-61.3,168.3C-117.8,147.7,-180.6,144.1,-206.7,112.7C-232.8,81.2,-222.3,21.9,-203.4,-27.3C-184.4,-76.5,-157.1,-115.6,-121.9,-147.9C-86.6,-180.2,-43.3,-205.6,-7.8,-196.3C27.6,-186.9,55.3,-142.9,94.3,-111.3Z" fill="#f36b7f" />
  </g>
</svg>
    